<mxfile host="app.diagrams.net" modified="2020-11-15T03:14:01.487Z" agent="5.0 (Macintosh; Intel Mac OS X 10_13_6) AppleWebKit/537.36 (KHTML, like Gecko) Chrome/86.0.4240.193 Safari/537.36" etag="6rR0p5kRiuQN6HHIoA0k" version="13.9.8" type="github" pages="2">
  <diagram id="Z8oSEbn1bBhq3Yj3LOK5" name="Estate-website">
    <mxGraphModel dx="1965" dy="1140" grid="1" gridSize="10" guides="1" tooltips="1" connect="1" arrows="1" fold="1" page="1" pageScale="1" pageWidth="850" pageHeight="1100" math="0" shadow="0">
      <root>
        <mxCell id="0" />
        <mxCell id="1" parent="0" />
        <mxCell id="-wQXRfL7DwlZ8ekNPzgg-1" value="User&lt;br&gt;" style="shape=umlActor;verticalLabelPosition=bottom;verticalAlign=top;html=1;outlineConnect=0;fillColor=#dae8fc;strokeColor=#6c8ebf;" parent="1" vertex="1">
          <mxGeometry x="70" y="130" width="50" height="100" as="geometry" />
        </mxCell>
        <mxCell id="-wQXRfL7DwlZ8ekNPzgg-6" value="Administrator" style="shape=umlActor;verticalLabelPosition=bottom;verticalAlign=top;html=1;outlineConnect=0;fillColor=#f8cecc;strokeColor=#b85450;" parent="1" vertex="1">
          <mxGeometry x="70" y="450" width="50" height="100" as="geometry" />
        </mxCell>
        <mxCell id="-wQXRfL7DwlZ8ekNPzgg-10" value="Login" style="ellipse;whiteSpace=wrap;html=1;fillColor=#e1d5e7;strokeColor=#9673a6;" parent="1" vertex="1">
          <mxGeometry x="320" y="110" width="210" height="60" as="geometry" />
        </mxCell>
        <mxCell id="-wQXRfL7DwlZ8ekNPzgg-11" value="Search Property" style="ellipse;whiteSpace=wrap;html=1;fillColor=#dae8fc;strokeColor=#6c8ebf;" parent="1" vertex="1">
          <mxGeometry x="320" y="200" width="210" height="60" as="geometry" />
        </mxCell>
        <mxCell id="-wQXRfL7DwlZ8ekNPzgg-12" value="Update Details" style="ellipse;whiteSpace=wrap;html=1;fillColor=#f8cecc;strokeColor=#b85450;" parent="1" vertex="1">
          <mxGeometry x="320" y="680" width="210" height="60" as="geometry" />
        </mxCell>
        <mxCell id="-wQXRfL7DwlZ8ekNPzgg-13" value="View Property Details" style="ellipse;whiteSpace=wrap;html=1;fillColor=#dae8fc;strokeColor=#6c8ebf;" parent="1" vertex="1">
          <mxGeometry x="320" y="300" width="210" height="60" as="geometry" />
        </mxCell>
        <mxCell id="-wQXRfL7DwlZ8ekNPzgg-14" value="Manage Transactions" style="ellipse;whiteSpace=wrap;html=1;fillColor=#f8cecc;strokeColor=#b85450;" parent="1" vertex="1">
          <mxGeometry x="320" y="480" width="210" height="60" as="geometry" />
        </mxCell>
        <mxCell id="-wQXRfL7DwlZ8ekNPzgg-15" value="Manage Users" style="ellipse;whiteSpace=wrap;html=1;fillColor=#f8cecc;strokeColor=#b85450;" parent="1" vertex="1">
          <mxGeometry x="320" y="570" width="210" height="60" as="geometry" />
        </mxCell>
        <mxCell id="-wQXRfL7DwlZ8ekNPzgg-16" value="Log Out" style="ellipse;whiteSpace=wrap;html=1;fillColor=#e1d5e7;strokeColor=#9673a6;" parent="1" vertex="1">
          <mxGeometry x="320" y="390" width="210" height="60" as="geometry" />
        </mxCell>
        <mxCell id="-wQXRfL7DwlZ8ekNPzgg-17" value="Vendor details" style="ellipse;whiteSpace=wrap;html=1;fillColor=#f8cecc;strokeColor=#b85450;" parent="1" vertex="1">
          <mxGeometry x="320" y="800" width="210" height="60" as="geometry" />
        </mxCell>
        <mxCell id="-wQXRfL7DwlZ8ekNPzgg-19" value="" style="endArrow=classic;html=1;" parent="1" source="-wQXRfL7DwlZ8ekNPzgg-1" target="-wQXRfL7DwlZ8ekNPzgg-10" edge="1">
          <mxGeometry width="50" height="50" relative="1" as="geometry">
            <mxPoint x="400" y="210" as="sourcePoint" />
            <mxPoint x="450" y="160" as="targetPoint" />
          </mxGeometry>
        </mxCell>
        <mxCell id="-wQXRfL7DwlZ8ekNPzgg-23" value="" style="endArrow=classic;html=1;entryX=0;entryY=0.5;entryDx=0;entryDy=0;" parent="1" source="-wQXRfL7DwlZ8ekNPzgg-1" target="-wQXRfL7DwlZ8ekNPzgg-11" edge="1">
          <mxGeometry width="50" height="50" relative="1" as="geometry">
            <mxPoint x="400" y="210" as="sourcePoint" />
            <mxPoint x="450" y="160" as="targetPoint" />
          </mxGeometry>
        </mxCell>
        <mxCell id="-wQXRfL7DwlZ8ekNPzgg-24" value="" style="endArrow=classic;html=1;entryX=0;entryY=0.333;entryDx=0;entryDy=0;entryPerimeter=0;" parent="1" source="-wQXRfL7DwlZ8ekNPzgg-1" target="-wQXRfL7DwlZ8ekNPzgg-13" edge="1">
          <mxGeometry width="50" height="50" relative="1" as="geometry">
            <mxPoint x="400" y="210" as="sourcePoint" />
            <mxPoint x="310" y="330" as="targetPoint" />
          </mxGeometry>
        </mxCell>
        <mxCell id="-wQXRfL7DwlZ8ekNPzgg-25" value="" style="endArrow=classic;html=1;" parent="1" source="-wQXRfL7DwlZ8ekNPzgg-1" target="-wQXRfL7DwlZ8ekNPzgg-16" edge="1">
          <mxGeometry width="50" height="50" relative="1" as="geometry">
            <mxPoint x="140" y="400" as="sourcePoint" />
            <mxPoint x="450" y="340" as="targetPoint" />
          </mxGeometry>
        </mxCell>
        <mxCell id="-wQXRfL7DwlZ8ekNPzgg-26" value="" style="endArrow=classic;html=1;entryX=0;entryY=0.5;entryDx=0;entryDy=0;" parent="1" source="-wQXRfL7DwlZ8ekNPzgg-6" target="-wQXRfL7DwlZ8ekNPzgg-16" edge="1">
          <mxGeometry width="50" height="50" relative="1" as="geometry">
            <mxPoint x="400" y="390" as="sourcePoint" />
            <mxPoint x="450" y="340" as="targetPoint" />
          </mxGeometry>
        </mxCell>
        <mxCell id="-wQXRfL7DwlZ8ekNPzgg-28" value="" style="endArrow=classic;html=1;entryX=0;entryY=0.5;entryDx=0;entryDy=0;" parent="1" source="-wQXRfL7DwlZ8ekNPzgg-6" target="-wQXRfL7DwlZ8ekNPzgg-15" edge="1">
          <mxGeometry width="50" height="50" relative="1" as="geometry">
            <mxPoint x="300" y="640" as="sourcePoint" />
            <mxPoint x="350" y="590" as="targetPoint" />
          </mxGeometry>
        </mxCell>
        <mxCell id="-wQXRfL7DwlZ8ekNPzgg-30" value="" style="endArrow=classic;html=1;entryX=0;entryY=0.5;entryDx=0;entryDy=0;" parent="1" source="-wQXRfL7DwlZ8ekNPzgg-6" target="-wQXRfL7DwlZ8ekNPzgg-14" edge="1">
          <mxGeometry width="50" height="50" relative="1" as="geometry">
            <mxPoint x="400" y="390" as="sourcePoint" />
            <mxPoint x="450" y="340" as="targetPoint" />
          </mxGeometry>
        </mxCell>
        <mxCell id="-wQXRfL7DwlZ8ekNPzgg-31" value="" style="endArrow=classic;html=1;entryX=0;entryY=0.5;entryDx=0;entryDy=0;" parent="1" source="-wQXRfL7DwlZ8ekNPzgg-6" target="-wQXRfL7DwlZ8ekNPzgg-12" edge="1">
          <mxGeometry width="50" height="50" relative="1" as="geometry">
            <mxPoint x="400" y="540" as="sourcePoint" />
            <mxPoint x="450" y="490" as="targetPoint" />
          </mxGeometry>
        </mxCell>
        <mxCell id="-wQXRfL7DwlZ8ekNPzgg-32" value="" style="endArrow=classic;html=1;entryX=0;entryY=0.5;entryDx=0;entryDy=0;" parent="1" target="-wQXRfL7DwlZ8ekNPzgg-17" edge="1">
          <mxGeometry width="50" height="50" relative="1" as="geometry">
            <mxPoint x="120" y="530" as="sourcePoint" />
            <mxPoint x="450" y="670" as="targetPoint" />
          </mxGeometry>
        </mxCell>
        <mxCell id="-wQXRfL7DwlZ8ekNPzgg-33" value="" style="endArrow=classic;html=1;exitX=0.75;exitY=0.1;exitDx=0;exitDy=0;exitPerimeter=0;" parent="1" source="-wQXRfL7DwlZ8ekNPzgg-6" target="-wQXRfL7DwlZ8ekNPzgg-10" edge="1">
          <mxGeometry width="50" height="50" relative="1" as="geometry">
            <mxPoint x="400" y="340" as="sourcePoint" />
            <mxPoint x="450" y="290" as="targetPoint" />
          </mxGeometry>
        </mxCell>
        <mxCell id="-wQXRfL7DwlZ8ekNPzgg-34" value="Trườngpd" style="text;html=1;strokeColor=none;fillColor=none;align=center;verticalAlign=middle;whiteSpace=wrap;rounded=0;" parent="1" vertex="1">
          <mxGeometry x="780" y="1070" width="40" height="20" as="geometry" />
        </mxCell>
      </root>
    </mxGraphModel>
  </diagram>
  <diagram id="oPkNvQ8Dj2n9ATQopcD-" name="database">
    <mxGraphModel dx="1710" dy="1160" grid="0" gridSize="10" guides="1" tooltips="1" connect="1" arrows="1" fold="1" page="0" pageScale="1" pageWidth="850" pageHeight="1100" math="0" shadow="0">
      <root>
        <mxCell id="tRssm2NruW9SGUldVLzW-0" />
        <mxCell id="tRssm2NruW9SGUldVLzW-1" parent="tRssm2NruW9SGUldVLzW-0" />
        <mxCell id="tRssm2NruW9SGUldVLzW-2" value="Category" style="shape=table;html=1;whiteSpace=wrap;startSize=30;container=1;collapsible=0;childLayout=tableLayout;fixedRows=1;rowLines=0;fontStyle=0;align=center;fillColor=#fff2cc;strokeColor=#d6b656;" vertex="1" parent="tRssm2NruW9SGUldVLzW-1">
          <mxGeometry x="-60" y="-28" width="170" height="120.17647058823533" as="geometry" />
        </mxCell>
        <mxCell id="tRssm2NruW9SGUldVLzW-3" value="" style="shape=partialRectangle;html=1;whiteSpace=wrap;collapsible=0;dropTarget=0;pointerEvents=0;fillColor=none;top=0;left=0;bottom=1;right=0;points=[[0,0.5],[1,0.5]];portConstraint=eastwest;" vertex="1" parent="tRssm2NruW9SGUldVLzW-2">
          <mxGeometry y="30" width="170" height="30" as="geometry" />
        </mxCell>
        <mxCell id="tRssm2NruW9SGUldVLzW-4" value="PR" style="shape=partialRectangle;html=1;whiteSpace=wrap;connectable=0;fillColor=none;top=0;left=0;bottom=0;right=0;overflow=hidden;" vertex="1" parent="tRssm2NruW9SGUldVLzW-3">
          <mxGeometry width="38" height="30" as="geometry" />
        </mxCell>
        <mxCell id="tRssm2NruW9SGUldVLzW-5" value="&lt;b&gt;id_category&lt;/b&gt;" style="shape=partialRectangle;html=1;whiteSpace=wrap;connectable=0;fillColor=none;top=0;left=0;bottom=0;right=0;align=left;spacingLeft=6;overflow=hidden;" vertex="1" parent="tRssm2NruW9SGUldVLzW-3">
          <mxGeometry x="38" width="132" height="30" as="geometry" />
        </mxCell>
        <mxCell id="tRssm2NruW9SGUldVLzW-6" value="" style="shape=partialRectangle;html=1;whiteSpace=wrap;collapsible=0;dropTarget=0;pointerEvents=0;fillColor=none;top=0;left=0;bottom=0;right=0;points=[[0,0.5],[1,0.5]];portConstraint=eastwest;" vertex="1" parent="tRssm2NruW9SGUldVLzW-2">
          <mxGeometry y="60" width="170" height="30" as="geometry" />
        </mxCell>
        <mxCell id="tRssm2NruW9SGUldVLzW-7" value="" style="shape=partialRectangle;html=1;whiteSpace=wrap;connectable=0;fillColor=none;top=0;left=0;bottom=0;right=0;overflow=hidden;" vertex="1" parent="tRssm2NruW9SGUldVLzW-6">
          <mxGeometry width="38" height="30" as="geometry" />
        </mxCell>
        <mxCell id="tRssm2NruW9SGUldVLzW-8" value="" style="shape=partialRectangle;html=1;whiteSpace=wrap;connectable=0;fillColor=none;top=0;left=0;bottom=0;right=0;align=left;spacingLeft=6;overflow=hidden;" vertex="1" parent="tRssm2NruW9SGUldVLzW-6">
          <mxGeometry x="38" width="132" height="30" as="geometry" />
        </mxCell>
        <mxCell id="tRssm2NruW9SGUldVLzW-9" value="" style="shape=partialRectangle;html=1;whiteSpace=wrap;collapsible=0;dropTarget=0;pointerEvents=0;fillColor=none;top=0;left=0;bottom=0;right=0;points=[[0,0.5],[1,0.5]];portConstraint=eastwest;" vertex="1" parent="tRssm2NruW9SGUldVLzW-2">
          <mxGeometry y="90" width="170" height="30" as="geometry" />
        </mxCell>
        <mxCell id="tRssm2NruW9SGUldVLzW-10" value="" style="shape=partialRectangle;html=1;whiteSpace=wrap;connectable=0;fillColor=none;top=0;left=0;bottom=0;right=0;overflow=hidden;" vertex="1" parent="tRssm2NruW9SGUldVLzW-9">
          <mxGeometry width="38" height="30" as="geometry" />
        </mxCell>
        <mxCell id="tRssm2NruW9SGUldVLzW-11" value="" style="shape=partialRectangle;html=1;whiteSpace=wrap;connectable=0;fillColor=none;top=0;left=0;bottom=0;right=0;align=left;spacingLeft=6;overflow=hidden;" vertex="1" parent="tRssm2NruW9SGUldVLzW-9">
          <mxGeometry x="38" width="132" height="30" as="geometry" />
        </mxCell>
        <mxCell id="tRssm2NruW9SGUldVLzW-18" value="Product" style="shape=table;html=1;whiteSpace=wrap;startSize=30;container=1;collapsible=0;childLayout=tableLayout;fixedRows=1;rowLines=0;fontStyle=1;align=center;fillColor=#fff2cc;strokeColor=#d6b656;" vertex="1" parent="tRssm2NruW9SGUldVLzW-1">
          <mxGeometry x="254" y="60" width="170" height="240" as="geometry" />
        </mxCell>
        <mxCell id="tRssm2NruW9SGUldVLzW-19" value="" style="shape=partialRectangle;html=1;whiteSpace=wrap;collapsible=0;dropTarget=0;pointerEvents=0;fillColor=none;top=0;left=0;bottom=1;right=0;points=[[0,0.5],[1,0.5]];portConstraint=eastwest;" vertex="1" parent="tRssm2NruW9SGUldVLzW-18">
          <mxGeometry y="30" width="170" height="30" as="geometry" />
        </mxCell>
        <mxCell id="tRssm2NruW9SGUldVLzW-20" value="PR" style="shape=partialRectangle;html=1;whiteSpace=wrap;connectable=0;fillColor=none;top=0;left=0;bottom=0;right=0;overflow=hidden;" vertex="1" parent="tRssm2NruW9SGUldVLzW-19">
          <mxGeometry width="38" height="30" as="geometry" />
        </mxCell>
        <mxCell id="tRssm2NruW9SGUldVLzW-21" value="&lt;b&gt;id_product&lt;/b&gt;" style="shape=partialRectangle;html=1;whiteSpace=wrap;connectable=0;fillColor=none;top=0;left=0;bottom=0;right=0;align=left;spacingLeft=6;overflow=hidden;" vertex="1" parent="tRssm2NruW9SGUldVLzW-19">
          <mxGeometry x="38" width="132" height="30" as="geometry" />
        </mxCell>
        <mxCell id="tRssm2NruW9SGUldVLzW-22" value="" style="shape=partialRectangle;html=1;whiteSpace=wrap;collapsible=0;dropTarget=0;pointerEvents=0;fillColor=none;top=0;left=0;bottom=0;right=0;points=[[0,0.5],[1,0.5]];portConstraint=eastwest;" vertex="1" parent="tRssm2NruW9SGUldVLzW-18">
          <mxGeometry y="60" width="170" height="30" as="geometry" />
        </mxCell>
        <mxCell id="tRssm2NruW9SGUldVLzW-23" value="" style="shape=partialRectangle;html=1;whiteSpace=wrap;connectable=0;fillColor=none;top=0;left=0;bottom=0;right=0;overflow=hidden;" vertex="1" parent="tRssm2NruW9SGUldVLzW-22">
          <mxGeometry width="38" height="30" as="geometry" />
        </mxCell>
        <mxCell id="tRssm2NruW9SGUldVLzW-24" value="name" style="shape=partialRectangle;html=1;whiteSpace=wrap;connectable=0;fillColor=none;top=0;left=0;bottom=0;right=0;align=left;spacingLeft=6;overflow=hidden;" vertex="1" parent="tRssm2NruW9SGUldVLzW-22">
          <mxGeometry x="38" width="132" height="30" as="geometry" />
        </mxCell>
        <mxCell id="tRssm2NruW9SGUldVLzW-25" value="" style="shape=partialRectangle;html=1;whiteSpace=wrap;collapsible=0;dropTarget=0;pointerEvents=0;fillColor=none;top=0;left=0;bottom=0;right=0;points=[[0,0.5],[1,0.5]];portConstraint=eastwest;" vertex="1" parent="tRssm2NruW9SGUldVLzW-18">
          <mxGeometry y="90" width="170" height="30" as="geometry" />
        </mxCell>
        <mxCell id="tRssm2NruW9SGUldVLzW-26" value="" style="shape=partialRectangle;html=1;whiteSpace=wrap;connectable=0;fillColor=none;top=0;left=0;bottom=0;right=0;overflow=hidden;" vertex="1" parent="tRssm2NruW9SGUldVLzW-25">
          <mxGeometry width="38" height="30" as="geometry" />
        </mxCell>
        <mxCell id="tRssm2NruW9SGUldVLzW-27" value="price" style="shape=partialRectangle;html=1;whiteSpace=wrap;connectable=0;fillColor=none;top=0;left=0;bottom=0;right=0;align=left;spacingLeft=6;overflow=hidden;" vertex="1" parent="tRssm2NruW9SGUldVLzW-25">
          <mxGeometry x="38" width="132" height="30" as="geometry" />
        </mxCell>
        <mxCell id="tRssm2NruW9SGUldVLzW-28" value="" style="shape=partialRectangle;html=1;whiteSpace=wrap;collapsible=0;dropTarget=0;pointerEvents=0;fillColor=none;top=0;left=0;bottom=0;right=0;points=[[0,0.5],[1,0.5]];portConstraint=eastwest;" vertex="1" parent="tRssm2NruW9SGUldVLzW-18">
          <mxGeometry y="120" width="170" height="30" as="geometry" />
        </mxCell>
        <mxCell id="tRssm2NruW9SGUldVLzW-29" value="" style="shape=partialRectangle;html=1;whiteSpace=wrap;connectable=0;fillColor=none;top=0;left=0;bottom=0;right=0;overflow=hidden;" vertex="1" parent="tRssm2NruW9SGUldVLzW-28">
          <mxGeometry width="38" height="30" as="geometry" />
        </mxCell>
        <mxCell id="tRssm2NruW9SGUldVLzW-30" value="image" style="shape=partialRectangle;html=1;whiteSpace=wrap;connectable=0;fillColor=none;top=0;left=0;bottom=0;right=0;align=left;spacingLeft=6;overflow=hidden;" vertex="1" parent="tRssm2NruW9SGUldVLzW-28">
          <mxGeometry x="38" width="132" height="30" as="geometry" />
        </mxCell>
        <mxCell id="tRssm2NruW9SGUldVLzW-31" value="" style="shape=partialRectangle;html=1;whiteSpace=wrap;collapsible=0;dropTarget=0;pointerEvents=0;fillColor=none;top=0;left=0;bottom=0;right=0;points=[[0,0.5],[1,0.5]];portConstraint=eastwest;" vertex="1" parent="tRssm2NruW9SGUldVLzW-18">
          <mxGeometry y="150" width="170" height="30" as="geometry" />
        </mxCell>
        <mxCell id="tRssm2NruW9SGUldVLzW-32" value="" style="shape=partialRectangle;html=1;whiteSpace=wrap;connectable=0;fillColor=none;top=0;left=0;bottom=0;right=0;overflow=hidden;" vertex="1" parent="tRssm2NruW9SGUldVLzW-31">
          <mxGeometry width="38" height="30" as="geometry" />
        </mxCell>
        <mxCell id="tRssm2NruW9SGUldVLzW-33" value="discount" style="shape=partialRectangle;html=1;whiteSpace=wrap;connectable=0;fillColor=none;top=0;left=0;bottom=0;right=0;align=left;spacingLeft=6;overflow=hidden;" vertex="1" parent="tRssm2NruW9SGUldVLzW-31">
          <mxGeometry x="38" width="132" height="30" as="geometry" />
        </mxCell>
        <mxCell id="tRssm2NruW9SGUldVLzW-34" value="" style="shape=partialRectangle;html=1;whiteSpace=wrap;collapsible=0;dropTarget=0;pointerEvents=0;fillColor=none;top=0;left=0;bottom=0;right=0;points=[[0,0.5],[1,0.5]];portConstraint=eastwest;" vertex="1" parent="tRssm2NruW9SGUldVLzW-18">
          <mxGeometry y="180" width="170" height="30" as="geometry" />
        </mxCell>
        <mxCell id="tRssm2NruW9SGUldVLzW-35" value="FR1" style="shape=partialRectangle;html=1;whiteSpace=wrap;connectable=0;fillColor=none;top=0;left=0;bottom=0;right=0;overflow=hidden;" vertex="1" parent="tRssm2NruW9SGUldVLzW-34">
          <mxGeometry width="38" height="30" as="geometry" />
        </mxCell>
        <mxCell id="tRssm2NruW9SGUldVLzW-36" value="id_category" style="shape=partialRectangle;html=1;whiteSpace=wrap;connectable=0;fillColor=none;top=0;left=0;bottom=0;right=0;align=left;spacingLeft=6;overflow=hidden;" vertex="1" parent="tRssm2NruW9SGUldVLzW-34">
          <mxGeometry x="38" width="132" height="30" as="geometry" />
        </mxCell>
        <mxCell id="tRssm2NruW9SGUldVLzW-37" value="" style="shape=partialRectangle;html=1;whiteSpace=wrap;collapsible=0;dropTarget=0;pointerEvents=0;fillColor=none;top=0;left=0;bottom=0;right=0;points=[[0,0.5],[1,0.5]];portConstraint=eastwest;" vertex="1" parent="tRssm2NruW9SGUldVLzW-18">
          <mxGeometry y="210" width="170" height="30" as="geometry" />
        </mxCell>
        <mxCell id="tRssm2NruW9SGUldVLzW-38" value="" style="shape=partialRectangle;html=1;whiteSpace=wrap;connectable=0;fillColor=none;top=0;left=0;bottom=0;right=0;overflow=hidden;" vertex="1" parent="tRssm2NruW9SGUldVLzW-37">
          <mxGeometry width="38" height="30" as="geometry" />
        </mxCell>
        <mxCell id="tRssm2NruW9SGUldVLzW-39" value="description" style="shape=partialRectangle;html=1;whiteSpace=wrap;connectable=0;fillColor=none;top=0;left=0;bottom=0;right=0;align=left;spacingLeft=6;overflow=hidden;" vertex="1" parent="tRssm2NruW9SGUldVLzW-37">
          <mxGeometry x="38" width="132" height="30" as="geometry" />
        </mxCell>
        <mxCell id="tRssm2NruW9SGUldVLzW-40" value="Comment" style="shape=table;html=1;whiteSpace=wrap;startSize=30;container=1;collapsible=0;childLayout=tableLayout;fixedRows=1;rowLines=0;fontStyle=1;align=center;fillColor=#fff2cc;strokeColor=#d6b656;" vertex="1" parent="tRssm2NruW9SGUldVLzW-1">
          <mxGeometry x="521" y="-91" width="180" height="238.5000000000001" as="geometry" />
        </mxCell>
        <mxCell id="tRssm2NruW9SGUldVLzW-41" value="" style="shape=partialRectangle;html=1;whiteSpace=wrap;collapsible=0;dropTarget=0;pointerEvents=0;fillColor=none;top=0;left=0;bottom=1;right=0;points=[[0,0.5],[1,0.5]];portConstraint=eastwest;" vertex="1" parent="tRssm2NruW9SGUldVLzW-40">
          <mxGeometry y="30" width="180" height="30" as="geometry" />
        </mxCell>
        <mxCell id="tRssm2NruW9SGUldVLzW-42" value="PR" style="shape=partialRectangle;html=1;whiteSpace=wrap;connectable=0;fillColor=none;top=0;left=0;bottom=0;right=0;overflow=hidden;" vertex="1" parent="tRssm2NruW9SGUldVLzW-41">
          <mxGeometry width="33" height="30" as="geometry" />
        </mxCell>
        <mxCell id="tRssm2NruW9SGUldVLzW-43" value="&lt;b&gt;id_comment&lt;/b&gt;" style="shape=partialRectangle;html=1;whiteSpace=wrap;connectable=0;fillColor=none;top=0;left=0;bottom=0;right=0;align=left;spacingLeft=6;overflow=hidden;" vertex="1" parent="tRssm2NruW9SGUldVLzW-41">
          <mxGeometry x="33" width="147" height="30" as="geometry" />
        </mxCell>
        <mxCell id="tRssm2NruW9SGUldVLzW-44" value="" style="shape=partialRectangle;html=1;whiteSpace=wrap;collapsible=0;dropTarget=0;pointerEvents=0;fillColor=none;top=0;left=0;bottom=0;right=0;points=[[0,0.5],[1,0.5]];portConstraint=eastwest;" vertex="1" parent="tRssm2NruW9SGUldVLzW-40">
          <mxGeometry y="60" width="180" height="30" as="geometry" />
        </mxCell>
        <mxCell id="tRssm2NruW9SGUldVLzW-45" value="" style="shape=partialRectangle;html=1;whiteSpace=wrap;connectable=0;fillColor=none;top=0;left=0;bottom=0;right=0;overflow=hidden;" vertex="1" parent="tRssm2NruW9SGUldVLzW-44">
          <mxGeometry width="33" height="30" as="geometry" />
        </mxCell>
        <mxCell id="tRssm2NruW9SGUldVLzW-46" value="content" style="shape=partialRectangle;html=1;whiteSpace=wrap;connectable=0;fillColor=none;top=0;left=0;bottom=0;right=0;align=left;spacingLeft=6;overflow=hidden;" vertex="1" parent="tRssm2NruW9SGUldVLzW-44">
          <mxGeometry x="33" width="147" height="30" as="geometry" />
        </mxCell>
        <mxCell id="tRssm2NruW9SGUldVLzW-47" value="" style="shape=partialRectangle;html=1;whiteSpace=wrap;collapsible=0;dropTarget=0;pointerEvents=0;fillColor=none;top=0;left=0;bottom=0;right=0;points=[[0,0.5],[1,0.5]];portConstraint=eastwest;" vertex="1" parent="tRssm2NruW9SGUldVLzW-40">
          <mxGeometry y="90" width="180" height="30" as="geometry" />
        </mxCell>
        <mxCell id="tRssm2NruW9SGUldVLzW-48" value="FR1" style="shape=partialRectangle;html=1;whiteSpace=wrap;connectable=0;fillColor=none;top=0;left=0;bottom=0;right=0;overflow=hidden;" vertex="1" parent="tRssm2NruW9SGUldVLzW-47">
          <mxGeometry width="33" height="30" as="geometry" />
        </mxCell>
        <mxCell id="tRssm2NruW9SGUldVLzW-49" value="id_customer" style="shape=partialRectangle;html=1;whiteSpace=wrap;connectable=0;fillColor=none;top=0;left=0;bottom=0;right=0;align=left;spacingLeft=6;overflow=hidden;" vertex="1" parent="tRssm2NruW9SGUldVLzW-47">
          <mxGeometry x="33" width="147" height="30" as="geometry" />
        </mxCell>
        <mxCell id="tRssm2NruW9SGUldVLzW-50" value="" style="shape=partialRectangle;html=1;whiteSpace=wrap;collapsible=0;dropTarget=0;pointerEvents=0;fillColor=none;top=0;left=0;bottom=0;right=0;points=[[0,0.5],[1,0.5]];portConstraint=eastwest;" vertex="1" parent="tRssm2NruW9SGUldVLzW-40">
          <mxGeometry y="120" width="180" height="30" as="geometry" />
        </mxCell>
        <mxCell id="tRssm2NruW9SGUldVLzW-51" value="FR2" style="shape=partialRectangle;html=1;whiteSpace=wrap;connectable=0;fillColor=none;top=0;left=0;bottom=0;right=0;overflow=hidden;" vertex="1" parent="tRssm2NruW9SGUldVLzW-50">
          <mxGeometry width="33" height="30" as="geometry" />
        </mxCell>
        <mxCell id="tRssm2NruW9SGUldVLzW-52" value="id_product" style="shape=partialRectangle;html=1;whiteSpace=wrap;connectable=0;fillColor=none;top=0;left=0;bottom=0;right=0;align=left;spacingLeft=6;overflow=hidden;" vertex="1" parent="tRssm2NruW9SGUldVLzW-50">
          <mxGeometry x="33" width="147" height="30" as="geometry" />
        </mxCell>
        <mxCell id="tRssm2NruW9SGUldVLzW-56" value="" style="shape=partialRectangle;html=1;whiteSpace=wrap;collapsible=0;dropTarget=0;pointerEvents=0;fillColor=none;top=0;left=0;bottom=0;right=0;points=[[0,0.5],[1,0.5]];portConstraint=eastwest;" vertex="1" parent="tRssm2NruW9SGUldVLzW-40">
          <mxGeometry y="150" width="180" height="30" as="geometry" />
        </mxCell>
        <mxCell id="tRssm2NruW9SGUldVLzW-57" value="" style="shape=partialRectangle;html=1;whiteSpace=wrap;connectable=0;fillColor=none;top=0;left=0;bottom=0;right=0;overflow=hidden;" vertex="1" parent="tRssm2NruW9SGUldVLzW-56">
          <mxGeometry width="33" height="30" as="geometry" />
        </mxCell>
        <mxCell id="tRssm2NruW9SGUldVLzW-58" value="date" style="shape=partialRectangle;html=1;whiteSpace=wrap;connectable=0;fillColor=none;top=0;left=0;bottom=0;right=0;align=left;spacingLeft=6;overflow=hidden;" vertex="1" parent="tRssm2NruW9SGUldVLzW-56">
          <mxGeometry x="33" width="147" height="30" as="geometry" />
        </mxCell>
        <mxCell id="tRssm2NruW9SGUldVLzW-53" value="" style="shape=partialRectangle;html=1;whiteSpace=wrap;collapsible=0;dropTarget=0;pointerEvents=0;fillColor=none;top=0;left=0;bottom=0;right=0;points=[[0,0.5],[1,0.5]];portConstraint=eastwest;" vertex="1" parent="tRssm2NruW9SGUldVLzW-40">
          <mxGeometry y="180" width="180" height="33" as="geometry" />
        </mxCell>
        <mxCell id="tRssm2NruW9SGUldVLzW-54" value="" style="shape=partialRectangle;html=1;whiteSpace=wrap;connectable=0;fillColor=none;top=0;left=0;bottom=0;right=0;overflow=hidden;" vertex="1" parent="tRssm2NruW9SGUldVLzW-53">
          <mxGeometry width="33" height="33" as="geometry" />
        </mxCell>
        <mxCell id="tRssm2NruW9SGUldVLzW-55" value="" style="shape=partialRectangle;html=1;whiteSpace=wrap;connectable=0;fillColor=none;top=0;left=0;bottom=0;right=0;align=left;spacingLeft=6;overflow=hidden;" vertex="1" parent="tRssm2NruW9SGUldVLzW-53">
          <mxGeometry x="33" width="147" height="33" as="geometry" />
        </mxCell>
        <mxCell id="tRssm2NruW9SGUldVLzW-59" value="" style="shape=partialRectangle;html=1;whiteSpace=wrap;collapsible=0;dropTarget=0;pointerEvents=0;fillColor=none;top=0;left=0;bottom=0;right=0;points=[[0,0.5],[1,0.5]];portConstraint=eastwest;" vertex="1" parent="tRssm2NruW9SGUldVLzW-40">
          <mxGeometry y="213" width="180" height="25" as="geometry" />
        </mxCell>
        <mxCell id="tRssm2NruW9SGUldVLzW-60" value="" style="shape=partialRectangle;html=1;whiteSpace=wrap;connectable=0;fillColor=none;top=0;left=0;bottom=0;right=0;overflow=hidden;" vertex="1" parent="tRssm2NruW9SGUldVLzW-59">
          <mxGeometry width="33" height="25" as="geometry" />
        </mxCell>
        <mxCell id="tRssm2NruW9SGUldVLzW-61" value="" style="shape=partialRectangle;html=1;whiteSpace=wrap;connectable=0;fillColor=none;top=0;left=0;bottom=0;right=0;align=left;spacingLeft=6;overflow=hidden;" vertex="1" parent="tRssm2NruW9SGUldVLzW-59">
          <mxGeometry x="33" width="147" height="25" as="geometry" />
        </mxCell>
        <mxCell id="tRssm2NruW9SGUldVLzW-88" value="Customer" style="shape=table;html=1;whiteSpace=wrap;startSize=30;container=1;collapsible=0;childLayout=tableLayout;fixedRows=1;rowLines=0;fontStyle=1;align=center;fillColor=#fff2cc;strokeColor=#d6b656;" vertex="1" parent="tRssm2NruW9SGUldVLzW-1">
          <mxGeometry x="822" y="98" width="180" height="238" as="geometry" />
        </mxCell>
        <mxCell id="tRssm2NruW9SGUldVLzW-89" value="" style="shape=partialRectangle;html=1;whiteSpace=wrap;collapsible=0;dropTarget=0;pointerEvents=0;fillColor=none;top=0;left=0;bottom=1;right=0;points=[[0,0.5],[1,0.5]];portConstraint=eastwest;" vertex="1" parent="tRssm2NruW9SGUldVLzW-88">
          <mxGeometry y="30" width="180" height="30" as="geometry" />
        </mxCell>
        <mxCell id="tRssm2NruW9SGUldVLzW-90" value="PR" style="shape=partialRectangle;html=1;whiteSpace=wrap;connectable=0;fillColor=none;top=0;left=0;bottom=0;right=0;overflow=hidden;" vertex="1" parent="tRssm2NruW9SGUldVLzW-89">
          <mxGeometry width="33" height="30" as="geometry" />
        </mxCell>
        <mxCell id="tRssm2NruW9SGUldVLzW-91" value="&lt;b&gt;id_customer&lt;/b&gt;" style="shape=partialRectangle;html=1;whiteSpace=wrap;connectable=0;fillColor=none;top=0;left=0;bottom=0;right=0;align=left;spacingLeft=6;overflow=hidden;" vertex="1" parent="tRssm2NruW9SGUldVLzW-89">
          <mxGeometry x="33" width="147" height="30" as="geometry" />
        </mxCell>
        <mxCell id="tRssm2NruW9SGUldVLzW-92" value="" style="shape=partialRectangle;html=1;whiteSpace=wrap;collapsible=0;dropTarget=0;pointerEvents=0;fillColor=none;top=0;left=0;bottom=0;right=0;points=[[0,0.5],[1,0.5]];portConstraint=eastwest;" vertex="1" parent="tRssm2NruW9SGUldVLzW-88">
          <mxGeometry y="60" width="180" height="30" as="geometry" />
        </mxCell>
        <mxCell id="tRssm2NruW9SGUldVLzW-93" value="" style="shape=partialRectangle;html=1;whiteSpace=wrap;connectable=0;fillColor=none;top=0;left=0;bottom=0;right=0;overflow=hidden;" vertex="1" parent="tRssm2NruW9SGUldVLzW-92">
          <mxGeometry width="33" height="30" as="geometry" />
        </mxCell>
        <mxCell id="tRssm2NruW9SGUldVLzW-94" value="name" style="shape=partialRectangle;html=1;whiteSpace=wrap;connectable=0;fillColor=none;top=0;left=0;bottom=0;right=0;align=left;spacingLeft=6;overflow=hidden;" vertex="1" parent="tRssm2NruW9SGUldVLzW-92">
          <mxGeometry x="33" width="147" height="30" as="geometry" />
        </mxCell>
        <mxCell id="tRssm2NruW9SGUldVLzW-95" value="" style="shape=partialRectangle;html=1;whiteSpace=wrap;collapsible=0;dropTarget=0;pointerEvents=0;fillColor=none;top=0;left=0;bottom=0;right=0;points=[[0,0.5],[1,0.5]];portConstraint=eastwest;" vertex="1" parent="tRssm2NruW9SGUldVLzW-88">
          <mxGeometry y="90" width="180" height="30" as="geometry" />
        </mxCell>
        <mxCell id="tRssm2NruW9SGUldVLzW-96" value="" style="shape=partialRectangle;html=1;whiteSpace=wrap;connectable=0;fillColor=none;top=0;left=0;bottom=0;right=0;overflow=hidden;" vertex="1" parent="tRssm2NruW9SGUldVLzW-95">
          <mxGeometry width="33" height="30" as="geometry" />
        </mxCell>
        <mxCell id="tRssm2NruW9SGUldVLzW-97" value="email" style="shape=partialRectangle;html=1;whiteSpace=wrap;connectable=0;fillColor=none;top=0;left=0;bottom=0;right=0;align=left;spacingLeft=6;overflow=hidden;" vertex="1" parent="tRssm2NruW9SGUldVLzW-95">
          <mxGeometry x="33" width="147" height="30" as="geometry" />
        </mxCell>
        <mxCell id="tRssm2NruW9SGUldVLzW-98" value="" style="shape=partialRectangle;html=1;whiteSpace=wrap;collapsible=0;dropTarget=0;pointerEvents=0;fillColor=none;top=0;left=0;bottom=0;right=0;points=[[0,0.5],[1,0.5]];portConstraint=eastwest;" vertex="1" parent="tRssm2NruW9SGUldVLzW-88">
          <mxGeometry y="120" width="180" height="30" as="geometry" />
        </mxCell>
        <mxCell id="tRssm2NruW9SGUldVLzW-99" value="" style="shape=partialRectangle;html=1;whiteSpace=wrap;connectable=0;fillColor=none;top=0;left=0;bottom=0;right=0;overflow=hidden;" vertex="1" parent="tRssm2NruW9SGUldVLzW-98">
          <mxGeometry width="33" height="30" as="geometry" />
        </mxCell>
        <mxCell id="tRssm2NruW9SGUldVLzW-100" value="password" style="shape=partialRectangle;html=1;whiteSpace=wrap;connectable=0;fillColor=none;top=0;left=0;bottom=0;right=0;align=left;spacingLeft=6;overflow=hidden;" vertex="1" parent="tRssm2NruW9SGUldVLzW-98">
          <mxGeometry x="33" width="147" height="30" as="geometry" />
        </mxCell>
        <mxCell id="tRssm2NruW9SGUldVLzW-101" value="" style="shape=partialRectangle;html=1;whiteSpace=wrap;collapsible=0;dropTarget=0;pointerEvents=0;fillColor=none;top=0;left=0;bottom=0;right=0;points=[[0,0.5],[1,0.5]];portConstraint=eastwest;" vertex="1" parent="tRssm2NruW9SGUldVLzW-88">
          <mxGeometry y="150" width="180" height="33" as="geometry" />
        </mxCell>
        <mxCell id="tRssm2NruW9SGUldVLzW-102" value="" style="shape=partialRectangle;html=1;whiteSpace=wrap;connectable=0;fillColor=none;top=0;left=0;bottom=0;right=0;overflow=hidden;" vertex="1" parent="tRssm2NruW9SGUldVLzW-101">
          <mxGeometry width="33" height="33" as="geometry" />
        </mxCell>
        <mxCell id="tRssm2NruW9SGUldVLzW-103" value="rule" style="shape=partialRectangle;html=1;whiteSpace=wrap;connectable=0;fillColor=none;top=0;left=0;bottom=0;right=0;align=left;spacingLeft=6;overflow=hidden;" vertex="1" parent="tRssm2NruW9SGUldVLzW-101">
          <mxGeometry x="33" width="147" height="33" as="geometry" />
        </mxCell>
        <mxCell id="tRssm2NruW9SGUldVLzW-104" value="" style="shape=partialRectangle;html=1;whiteSpace=wrap;collapsible=0;dropTarget=0;pointerEvents=0;fillColor=none;top=0;left=0;bottom=0;right=0;points=[[0,0.5],[1,0.5]];portConstraint=eastwest;" vertex="1" parent="tRssm2NruW9SGUldVLzW-88">
          <mxGeometry y="183" width="180" height="30" as="geometry" />
        </mxCell>
        <mxCell id="tRssm2NruW9SGUldVLzW-105" value="" style="shape=partialRectangle;html=1;whiteSpace=wrap;connectable=0;fillColor=none;top=0;left=0;bottom=0;right=0;overflow=hidden;" vertex="1" parent="tRssm2NruW9SGUldVLzW-104">
          <mxGeometry width="33" height="30" as="geometry" />
        </mxCell>
        <mxCell id="tRssm2NruW9SGUldVLzW-106" value="" style="shape=partialRectangle;html=1;whiteSpace=wrap;connectable=0;fillColor=none;top=0;left=0;bottom=0;right=0;align=left;spacingLeft=6;overflow=hidden;" vertex="1" parent="tRssm2NruW9SGUldVLzW-104">
          <mxGeometry x="33" width="147" height="30" as="geometry" />
        </mxCell>
        <mxCell id="tRssm2NruW9SGUldVLzW-107" value="" style="shape=partialRectangle;html=1;whiteSpace=wrap;collapsible=0;dropTarget=0;pointerEvents=0;fillColor=none;top=0;left=0;bottom=0;right=0;points=[[0,0.5],[1,0.5]];portConstraint=eastwest;" vertex="1" parent="tRssm2NruW9SGUldVLzW-88">
          <mxGeometry y="213" width="180" height="25" as="geometry" />
        </mxCell>
        <mxCell id="tRssm2NruW9SGUldVLzW-108" value="" style="shape=partialRectangle;html=1;whiteSpace=wrap;connectable=0;fillColor=none;top=0;left=0;bottom=0;right=0;overflow=hidden;" vertex="1" parent="tRssm2NruW9SGUldVLzW-107">
          <mxGeometry width="33" height="25" as="geometry" />
        </mxCell>
        <mxCell id="tRssm2NruW9SGUldVLzW-109" value="" style="shape=partialRectangle;html=1;whiteSpace=wrap;connectable=0;fillColor=none;top=0;left=0;bottom=0;right=0;align=left;spacingLeft=6;overflow=hidden;" vertex="1" parent="tRssm2NruW9SGUldVLzW-107">
          <mxGeometry x="33" width="147" height="25" as="geometry" />
        </mxCell>
        <mxCell id="tRssm2NruW9SGUldVLzW-113" value="" style="endArrow=classic;html=1;entryX=0.988;entryY=0.067;entryDx=0;entryDy=0;entryPerimeter=0;" edge="1" parent="tRssm2NruW9SGUldVLzW-1" target="tRssm2NruW9SGUldVLzW-6">
          <mxGeometry width="50" height="50" relative="1" as="geometry">
            <mxPoint x="252" y="122" as="sourcePoint" />
            <mxPoint x="506" y="179" as="targetPoint" />
          </mxGeometry>
        </mxCell>
        <mxCell id="tRssm2NruW9SGUldVLzW-115" value="" style="endArrow=classic;html=1;exitX=0.004;exitY=-0.022;exitDx=0;exitDy=0;exitPerimeter=0;entryX=1.016;entryY=-0.056;entryDx=0;entryDy=0;entryPerimeter=0;" edge="1" parent="tRssm2NruW9SGUldVLzW-1" source="tRssm2NruW9SGUldVLzW-44" target="tRssm2NruW9SGUldVLzW-22">
          <mxGeometry width="50" height="50" relative="1" as="geometry">
            <mxPoint x="470" y="162" as="sourcePoint" />
            <mxPoint x="520" y="112" as="targetPoint" />
          </mxGeometry>
        </mxCell>
        <mxCell id="tRssm2NruW9SGUldVLzW-116" value="" style="endArrow=classic;html=1;entryX=0;entryY=0.5;entryDx=0;entryDy=0;exitX=0.994;exitY=0.033;exitDx=0;exitDy=0;exitPerimeter=0;" edge="1" parent="tRssm2NruW9SGUldVLzW-1" source="tRssm2NruW9SGUldVLzW-44" target="tRssm2NruW9SGUldVLzW-98">
          <mxGeometry width="50" height="50" relative="1" as="geometry">
            <mxPoint x="470" y="162" as="sourcePoint" />
            <mxPoint x="520" y="112" as="targetPoint" />
          </mxGeometry>
        </mxCell>
      </root>
    </mxGraphModel>
  </diagram>
</mxfile>
